<svg xmlns="http://www.w3.org/2000/svg" xmlns:xlink="http://www.w3.org/1999/xlink" width="3840" zoomAndPan="magnify" viewBox="0 0 1440 809.999993" height="2160" preserveAspectRatio="xMidYMid meet" version="1.0"><path fill="#ffffff" d="M 720 802.722656 C 666.332031 802.722656 614.257812 792.261719 565.140625 771.34375 C 541.492188 761.335938 518.75 749.058594 497.601562 734.730469 C 476.453125 720.402344 456.671875 704.257812 438.707031 686.066406 C 420.742188 668.328125 404.367188 648.316406 390.042969 627.398438 C 375.714844 606.023438 363.4375 583.28125 353.429688 559.859375 C 332.738281 510.742188 322.050781 458.667969 322.050781 405 C 322.050781 351.332031 332.511719 299.257812 353.429688 250.140625 C 363.4375 226.492188 375.714844 203.75 390.042969 182.601562 C 404.367188 161.453125 420.515625 141.671875 438.707031 123.707031 C 456.671875 105.515625 476.453125 89.140625 497.601562 74.816406 C 518.976562 60.488281 541.71875 48.207031 565.140625 38.203125 C 614.257812 17.511719 666.332031 6.820312 720 6.820312 C 773.667969 6.820312 825.742188 17.28125 874.859375 38.203125 C 898.507812 48.207031 921.25 60.488281 942.398438 74.816406 C 963.546875 89.140625 983.328125 105.285156 1001.292969 123.476562 C 1019.257812 141.441406 1035.632812 161.226562 1049.957031 182.375 C 1064.285156 203.75 1076.5625 226.492188 1086.570312 249.914062 C 1107.261719 299.03125 1117.949219 351.105469 1117.949219 404.773438 C 1117.949219 458.4375 1107.488281 510.515625 1086.570312 559.632812 C 1076.5625 583.28125 1064.285156 606.023438 1049.957031 627.171875 C 1035.632812 648.316406 1019.484375 668.101562 1001.292969 686.066406 C 983.328125 704.03125 963.546875 720.402344 942.398438 734.730469 C 921.023438 749.058594 898.28125 761.335938 874.859375 771.34375 C 825.96875 792.261719 773.894531 802.722656 720 802.722656 Z M 720 18.417969 C 506.925781 18.417969 333.417969 191.699219 333.417969 405 C 333.417969 618.300781 506.699219 791.582031 720 791.582031 C 933.300781 791.582031 1106.582031 618.300781 1106.582031 405 C 1106.582031 191.699219 933.300781 18.417969 720 18.417969 Z M 720 804.316406 C 666.105469 804.316406 613.804688 793.855469 564.457031 772.933594 C 540.808594 762.929688 518.070312 750.648438 496.691406 736.09375 C 475.542969 721.769531 455.761719 705.394531 437.570312 687.429688 C 419.605469 669.464844 403.003906 649.457031 388.90625 628.308594 C 374.578125 606.929688 362.070312 584.191406 352.066406 560.542969 C 331.144531 511.195312 320.683594 458.894531 320.683594 405 C 320.683594 351.105469 331.144531 298.804688 352.066406 249.457031 C 362.070312 225.808594 374.351562 203.070312 388.90625 181.691406 C 403.230469 160.542969 419.605469 140.761719 437.570312 122.570312 C 455.535156 104.605469 475.542969 88.003906 496.691406 73.90625 C 518.070312 59.578125 540.808594 47.070312 564.457031 37.066406 C 613.804688 16.144531 666.105469 5.683594 720 5.683594 C 773.894531 5.683594 826.195312 16.144531 875.542969 37.066406 C 899.191406 47.070312 921.929688 59.351562 943.308594 73.90625 C 964.457031 88.230469 984.238281 104.605469 1002.429688 122.570312 C 1020.394531 140.535156 1036.996094 160.542969 1051.09375 181.691406 C 1065.421875 203.070312 1077.929688 225.808594 1087.933594 249.457031 C 1108.855469 298.804688 1119.316406 351.105469 1119.316406 405 C 1119.316406 458.894531 1108.855469 511.195312 1087.933594 560.542969 C 1077.929688 584.191406 1065.648438 606.929688 1051.09375 628.308594 C 1036.769531 649.457031 1020.394531 669.238281 1002.429688 687.429688 C 984.464844 705.394531 964.457031 721.996094 943.308594 736.09375 C 921.929688 750.421875 899.191406 762.929688 875.542969 772.933594 C 826.195312 793.628906 773.894531 804.316406 720 804.316406 Z M 720 8.414062 C 666.5625 8.414062 614.484375 18.875 565.59375 39.566406 C 542.171875 49.574219 519.660156 61.851562 498.511719 76.179688 C 477.363281 90.277344 457.808594 106.652344 439.84375 124.617188 C 421.878906 142.578125 405.503906 162.136719 391.40625 183.285156 C 377.082031 204.433594 364.800781 227.171875 354.796875 250.59375 C 334.101562 299.484375 323.640625 351.332031 323.640625 405 C 323.640625 458.4375 334.101562 510.515625 354.796875 559.40625 C 364.800781 582.828125 377.082031 605.566406 391.40625 626.714844 C 405.503906 647.636719 421.878906 667.421875 439.84375 685.382812 C 457.808594 703.347656 477.589844 719.722656 498.511719 733.820312 C 519.660156 748.148438 542.398438 760.425781 565.824219 770.433594 C 614.714844 791.125 666.5625 801.585938 720.226562 801.585938 C 773.667969 801.585938 825.742188 791.125 874.632812 770.433594 C 898.054688 760.425781 920.792969 748.148438 941.941406 733.820312 C 962.863281 719.722656 982.648438 703.347656 1000.613281 685.382812 C 1018.578125 667.421875 1034.949219 647.636719 1049.046875 626.714844 C 1063.375 605.566406 1075.652344 582.828125 1085.660156 559.40625 C 1106.351562 510.515625 1116.8125 458.667969 1116.8125 405 C 1116.8125 351.332031 1106.351562 299.484375 1085.660156 250.59375 C 1075.652344 227.171875 1063.375 204.433594 1049.046875 183.285156 C 1034.949219 162.363281 1018.578125 142.578125 1000.613281 124.617188 C 982.648438 106.652344 962.863281 90.277344 941.941406 76.179688 C 920.792969 61.851562 898.054688 49.574219 874.632812 39.566406 C 825.515625 18.875 773.667969 8.414062 720 8.414062 Z M 720 792.71875 C 506.015625 792.71875 332.054688 618.757812 332.054688 404.773438 C 332.054688 190.789062 506.242188 17.054688 720 17.054688 C 933.757812 17.054688 1107.945312 191.015625 1107.945312 405 C 1107.945312 618.984375 933.984375 792.71875 720 792.71875 Z M 720 19.785156 C 507.835938 19.785156 335.011719 192.609375 335.011719 404.773438 C 335.011719 616.9375 507.835938 789.761719 720 789.761719 C 932.164062 789.761719 1104.988281 616.9375 1104.988281 404.773438 C 1104.988281 192.609375 932.390625 19.785156 720 19.785156 Z M 720 808.636719 C 665.425781 808.636719 612.667969 797.949219 562.867188 776.800781 C 538.988281 766.792969 515.792969 754.058594 494.191406 739.507812 C 472.816406 725.179688 452.804688 708.578125 434.386719 690.160156 C 416.191406 671.96875 399.59375 651.730469 385.039062 630.355469 C 370.484375 608.75 357.980469 585.785156 347.746094 561.679688 C 326.597656 511.878906 315.910156 459.121094 315.910156 404.546875 C 315.910156 349.96875 326.597656 297.210938 347.746094 247.410156 C 358.207031 223.761719 370.714844 200.792969 385.492188 179.191406 C 399.820312 157.816406 416.421875 137.804688 434.839844 119.386719 C 453.03125 101.191406 473.269531 84.59375 494.644531 70.039062 C 516.023438 55.484375 538.988281 42.980469 562.867188 32.972656 C 612.667969 11.824219 665.425781 1.136719 720 1.136719 C 774.574219 1.136719 827.332031 11.824219 877.132812 32.972656 C 901.011719 42.980469 924.207031 55.714844 945.808594 70.265625 C 967.183594 84.59375 987.195312 101.191406 1005.613281 119.613281 C 1023.808594 137.804688 1040.40625 158.042969 1054.960938 179.417969 C 1069.515625 201.023438 1082.019531 223.988281 1092.253906 248.09375 C 1113.402344 297.894531 1124.089844 350.652344 1124.089844 405.226562 C 1124.089844 459.804688 1113.402344 512.558594 1092.253906 562.359375 C 1082.25 586.238281 1069.515625 609.433594 1054.960938 631.035156 C 1040.632812 652.410156 1024.035156 672.421875 1005.613281 690.84375 C 987.421875 709.035156 967.183594 725.632812 945.808594 740.1875 C 924.207031 754.742188 901.238281 767.25 877.132812 777.480469 C 827.558594 797.949219 774.574219 808.636719 720 808.636719 Z M 720 24.105469 C 510.109375 24.105469 339.332031 194.882812 339.332031 404.773438 C 339.332031 614.664062 510.109375 785.441406 720 785.441406 C 929.890625 785.441406 1100.667969 614.664062 1100.667969 404.773438 C 1100.667969 194.882812 930.117188 24.105469 720 24.105469 Z M 1087.480469 542.351562 C 1047.683594 648.316406 963.316406 732.457031 857.578125 772.25 C 862.578125 770.433594 867.808594 768.386719 872.8125 766.113281 C 896.007812 756.332031 918.519531 744.054688 939.441406 729.953125 C 960.132812 715.855469 979.691406 699.710938 997.429688 681.972656 C 1015.164062 664.238281 1031.3125 644.679688 1045.410156 623.988281 C 1059.507812 603.066406 1071.789062 580.554688 1081.566406 557.359375 C 1083.613281 552.582031 1085.433594 547.578125 1087.480469 542.351562 Z M 352.75 542.578125 C 354.566406 547.578125 356.613281 552.582031 358.660156 557.585938 C 368.4375 580.78125 380.71875 603.292969 394.816406 624.214844 C 408.917969 644.90625 425.0625 664.464844 442.800781 682.199219 C 460.535156 699.9375 480.09375 716.082031 500.785156 730.183594 C 521.707031 744.28125 544.21875 756.5625 567.414062 766.339844 C 572.417969 768.386719 577.421875 770.433594 582.421875 772.25 C 476.679688 732.457031 392.542969 648.316406 352.75 542.578125 Z M 857.804688 37.519531 C 963.546875 77.316406 1047.683594 161.453125 1087.480469 267.195312 C 1085.660156 262.191406 1083.613281 257.191406 1081.566406 252.1875 C 1071.789062 228.992188 1059.507812 206.480469 1045.410156 185.558594 C 1031.3125 164.867188 1015.164062 145.308594 997.429688 127.570312 C 979.691406 109.835938 960.132812 93.6875 939.441406 79.589844 C 918.519531 65.492188 896.007812 53.210938 872.8125 43.433594 C 867.808594 41.386719 862.808594 39.566406 857.804688 37.519531 Z M 582.421875 37.519531 C 577.421875 39.339844 572.417969 41.386719 567.414062 43.433594 C 544.21875 53.210938 521.707031 65.492188 500.785156 79.589844 C 480.09375 93.6875 460.535156 109.835938 442.800781 127.570312 C 425.0625 145.308594 408.917969 164.867188 394.816406 185.558594 C 380.71875 206.480469 368.4375 228.992188 358.660156 252.1875 C 356.613281 256.960938 354.566406 261.964844 352.75 266.96875 C 392.769531 161.453125 476.679688 77.316406 582.421875 37.519531 Z M 720 810 C 665.425781 810 612.210938 799.3125 562.410156 778.164062 C 538.308594 767.929688 515.339844 755.425781 493.507812 740.871094 C 472.132812 726.316406 451.894531 709.714844 433.476562 691.523438 C 415.054688 673.105469 398.457031 653.09375 384.128906 631.492188 C 369.574219 609.886719 356.839844 586.691406 346.835938 562.589844 C 325.6875 512.558594 315 459.574219 315 405 C 315 350.425781 325.6875 297.210938 346.835938 247.410156 C 357.070312 223.308594 369.574219 200.339844 384.128906 178.507812 C 398.683594 157.132812 415.285156 136.894531 433.476562 118.476562 C 451.894531 100.054688 471.90625 83.457031 493.507812 69.128906 C 515.113281 54.574219 538.308594 41.839844 562.410156 31.835938 C 612.441406 10.6875 665.425781 0 720 0 C 774.574219 0 827.789062 10.6875 877.589844 31.835938 C 901.691406 42.070312 924.660156 54.574219 946.492188 69.128906 C 967.867188 83.683594 988.105469 100.285156 1006.523438 118.476562 C 1024.945312 136.894531 1041.542969 156.90625 1055.871094 178.507812 C 1070.425781 200.113281 1083.160156 223.308594 1093.164062 247.410156 C 1114.3125 297.441406 1125 350.425781 1125 405 C 1125 459.574219 1114.3125 512.789062 1093.164062 562.589844 C 1082.929688 586.691406 1070.425781 609.660156 1055.871094 631.492188 C 1041.316406 652.867188 1024.714844 673.105469 1006.523438 691.523438 C 988.105469 709.945312 968.09375 726.542969 946.492188 740.871094 C 924.886719 755.425781 901.691406 768.160156 877.589844 778.164062 C 827.789062 799.3125 774.804688 810 720 810 Z M 720 2.730469 C 665.652344 2.730469 613.121094 13.417969 563.546875 34.335938 C 539.671875 44.34375 516.703125 56.851562 495.328125 71.402344 C 473.953125 85.730469 453.941406 102.332031 435.75 120.523438 C 417.558594 138.714844 400.957031 158.726562 386.632812 180.101562 C 372.078125 201.703125 359.570312 224.671875 349.566406 248.320312 C 328.644531 297.894531 317.957031 350.652344 317.957031 404.773438 C 317.957031 459.121094 328.644531 511.652344 349.566406 561.222656 C 359.570312 585.101562 372.078125 608.070312 386.632812 629.445312 C 400.957031 650.820312 417.558594 670.832031 435.75 689.023438 C 453.941406 707.214844 473.953125 723.816406 495.328125 738.140625 C 516.929688 752.695312 539.898438 765.203125 563.546875 775.207031 C 613.121094 796.128906 665.878906 806.816406 720 806.816406 C 774.347656 806.816406 826.878906 796.128906 876.453125 775.207031 C 900.328125 765.203125 923.296875 752.695312 944.671875 738.140625 C 966.046875 723.816406 986.058594 707.214844 1004.25 689.023438 C 1022.441406 670.832031 1039.042969 650.820312 1053.367188 629.445312 C 1067.921875 607.839844 1080.429688 584.875 1090.433594 561.222656 C 1111.355469 511.652344 1122.042969 458.894531 1122.042969 404.773438 C 1122.042969 350.425781 1111.355469 297.894531 1090.433594 248.320312 C 1080.429688 224.445312 1067.921875 201.476562 1053.367188 180.101562 C 1039.042969 158.726562 1022.441406 138.714844 1004.25 120.523438 C 986.058594 102.332031 966.046875 85.730469 944.671875 71.402344 C 923.070312 56.851562 900.101562 44.34375 876.453125 34.335938 C 827.105469 13.1875 774.347656 2.730469 720 2.730469 Z M 720 787.03125 C 509.199219 787.03125 337.738281 615.574219 337.738281 404.773438 C 337.738281 193.972656 509.199219 22.511719 720 22.511719 C 930.800781 22.511719 1102.261719 193.972656 1102.261719 404.773438 C 1102.261719 615.574219 930.800781 787.03125 720 787.03125 Z M 720 25.695312 C 510.792969 25.695312 340.695312 195.792969 340.695312 405 C 340.695312 614.207031 510.792969 784.304688 720 784.304688 C 929.207031 784.304688 1099.304688 614.207031 1099.304688 405 C 1099.304688 195.792969 929.207031 25.695312 720 25.695312 Z M 858.03125 773.617188 L 857.121094 770.886719 C 881.226562 761.792969 903.96875 750.648438 925.570312 737.460938 C 930.117188 734.730469 934.4375 731.773438 938.757812 728.816406 C 959.453125 714.945312 979.007812 698.800781 996.519531 681.0625 C 1014.257812 663.328125 1030.175781 643.996094 1044.273438 623.304688 C 1047 619.210938 1049.730469 615.117188 1052.230469 611.023438 C 1065.648438 589.421875 1077.019531 566.226562 1086.34375 542.121094 L 1089.070312 543.03125 C 1087.25 548.035156 1085.203125 553.265625 1082.929688 558.269531 C 1073.152344 581.691406 1060.871094 603.976562 1046.546875 625.125 C 1032.449219 646.042969 1016.300781 665.601562 998.566406 683.339844 C 980.828125 701.074219 961.273438 717.21875 940.351562 731.320312 C 919.203125 745.644531 896.917969 757.699219 873.496094 767.703125 C 868.265625 769.523438 863.261719 771.570312 858.03125 773.617188 Z M 581.96875 773.617188 C 576.964844 771.796875 571.960938 769.75 566.960938 767.703125 C 543.539062 757.925781 521.253906 745.644531 500.105469 731.320312 C 479.183594 717.21875 459.625 701.074219 441.890625 683.339844 C 424.152344 665.601562 408.007812 645.816406 393.90625 625.125 C 379.582031 603.976562 367.53125 581.691406 357.523438 558.269531 C 355.476562 553.265625 353.429688 548.261719 351.613281 543.257812 L 354.339844 542.351562 C 354.339844 542.351562 354.339844 542.351562 354.339844 542.578125 C 364.800781 570.320312 378.21875 596.699219 394.363281 620.804688 C 395.042969 621.710938 395.726562 622.621094 396.183594 623.53125 C 410.054688 644.226562 426.199219 663.78125 443.9375 681.292969 C 461.671875 699.027344 481.003906 714.945312 501.695312 729.046875 C 501.921875 729.046875 501.921875 729.273438 502.152344 729.273438 C 527.164062 746.101562 554.226562 760.199219 583.105469 770.886719 Z M 1086.113281 267.648438 C 1074.746094 237.632812 1059.964844 209.4375 1042 183.285156 C 1028.582031 163.726562 1013.117188 145.308594 996.292969 128.480469 C 979.917969 112.109375 961.953125 97.101562 942.851562 83.683594 C 916.472656 65.492188 887.820312 50.253906 857.351562 38.65625 L 858.257812 35.929688 C 863.261719 37.75 868.265625 39.796875 873.269531 41.839844 C 896.691406 51.621094 918.976562 63.898438 940.125 78.226562 C 961.042969 92.324219 980.601562 108.46875 998.339844 126.207031 C 1016.074219 143.945312 1032.21875 163.726562 1046.320312 184.421875 C 1060.644531 205.570312 1072.699219 227.855469 1082.703125 251.277344 C 1084.75 256.28125 1086.796875 261.28125 1088.617188 266.285156 Z M 354.339844 267.421875 L 351.613281 266.511719 C 353.429688 261.511719 355.476562 256.734375 357.523438 251.730469 C 367.300781 228.308594 379.582031 206.023438 393.90625 184.875 C 408.007812 163.957031 424.152344 144.398438 441.890625 126.660156 C 459.625 108.925781 479.183594 92.78125 500.105469 78.679688 C 521.253906 64.355469 543.539062 52.300781 566.960938 42.296875 C 571.960938 40.25 576.964844 38.203125 581.96875 36.382812 L 582.878906 39.113281 C 551.269531 50.710938 521.707031 66.628906 494.644531 85.730469 C 476.679688 98.464844 459.625 113.019531 443.9375 128.480469 C 428.246094 144.171875 413.691406 161.453125 400.957031 179.417969 C 381.855469 206.480469 366.164062 236.042969 354.339844 267.421875 Z M 734.324219 155.996094 L 734.324219 155.085938 L 705.671875 155.085938 L 705.671875 155.996094 L 513.976562 654.683594 L 542.628906 654.683594 L 563.546875 599.425781 C 606.527344 633.765625 660.875 654.683594 720 654.683594 C 779.125 654.683594 833.472656 633.765625 876.453125 599.425781 L 897.371094 654.683594 L 926.023438 654.683594 Z M 806.867188 610.796875 C 779.125 622.167969 749.5625 628.078125 720 628.078125 C 689.527344 628.078125 660.875 622.394531 633.132812 610.796875 C 611.300781 601.246094 591.0625 588.96875 574.007812 573.503906 L 720 193.0625 L 865.992188 573.730469 C 847.800781 588.96875 828.925781 601.472656 806.867188 610.796875 Z M 726.140625 594.878906 L 726.140625 512.105469 L 785.265625 512.105469 L 785.265625 502.101562 L 655.191406 502.101562 L 655.191406 512.105469 L 717.042969 512.105469 L 717.042969 594.878906 L 662.242188 594.878906 C 669.515625 598.972656 677.25 602.382812 685.433594 604.886719 L 755.246094 604.886719 C 763.433594 602.382812 771.164062 598.972656 778.441406 594.878906 Z M 755.703125 609.207031 L 684.527344 609.207031 L 683.84375 608.976562 C 675.429688 606.476562 667.46875 602.839844 659.738281 598.519531 L 645.640625 590.558594 L 712.496094 590.558594 L 712.496094 516.199219 L 650.644531 516.199219 L 650.644531 497.78125 L 789.128906 497.78125 L 789.128906 516.425781 L 730.003906 516.425781 L 730.003906 590.785156 L 793.90625 590.785156 L 779.804688 598.746094 C 772.300781 603.066406 764.117188 606.476562 755.703125 609.207031 Z M 685.890625 600.792969 L 754.335938 600.792969 C 755.929688 600.335938 757.292969 599.882812 758.886719 599.199219 L 721.820312 599.199219 L 721.820312 507.785156 L 780.941406 507.785156 L 780.941406 506.191406 L 659.511719 506.191406 L 659.511719 507.785156 L 721.363281 507.785156 L 721.363281 599.199219 L 681.570312 599.199219 C 682.933594 599.882812 684.296875 600.335938 685.890625 600.792969 Z M 685.890625 600.792969 " fill-opacity="1" fill-rule="nonzero"/></svg>
