<svg xmlns="http://www.w3.org/2000/svg" xmlns:xlink="http://www.w3.org/1999/xlink" width="1920" zoomAndPan="magnify" viewBox="0 0 1440 809.999993" height="1080" preserveAspectRatio="xMidYMid meet" version="1.0"><defs><g/></defs><g fill="#ffffff" fill-opacity="1"><g transform="translate(0.00000622222, 490.397148)"><g><path d="M 7.140625 -128.25 C 7.140625 -165.300781 19.765625 -196.660156 45.015625 -222.328125 C 70.273438 -248.003906 100.710938 -260.84375 136.328125 -260.84375 C 172.140625 -260.84375 202.566406 -248.054688 227.609375 -222.484375 C 252.660156 -196.921875 265.1875 -165.507812 265.1875 -128.25 C 265.1875 -90.78125 252.867188 -59.257812 228.234375 -33.6875 C 203.597656 -8.125 172.960938 4.65625 136.328125 4.65625 C 98.847656 4.65625 67.945312 -8.019531 43.625 -33.375 C 19.300781 -58.738281 7.140625 -90.363281 7.140625 -128.25 Z M 70.1875 -128.25 C 70.1875 -114.789062 72.253906 -102.523438 76.390625 -91.453125 C 80.523438 -80.378906 87.769531 -71.007812 98.125 -63.34375 C 108.476562 -55.6875 121.210938 -51.859375 136.328125 -51.859375 C 158.054688 -51.859375 174.457031 -59.3125 185.53125 -74.21875 C 196.613281 -89.125 202.15625 -107.132812 202.15625 -128.25 C 202.15625 -149.15625 196.515625 -167.113281 185.234375 -182.125 C 173.953125 -197.132812 157.648438 -204.640625 136.328125 -204.640625 C 115.210938 -204.640625 98.910156 -197.132812 87.421875 -182.125 C 75.929688 -167.113281 70.1875 -149.15625 70.1875 -128.25 Z M 70.1875 -128.25 "/></g></g></g><g fill="#ffffff" fill-opacity="1"><g transform="translate(256.812719, 490.397148)"><g><path d="M 18.625 -256.1875 L 110.234375 -256.1875 C 134.867188 -256.1875 154.945312 -249.613281 170.46875 -236.46875 C 186 -223.320312 193.765625 -204.535156 193.765625 -180.109375 C 193.765625 -161.265625 189.054688 -145.476562 179.640625 -132.75 C 170.222656 -120.019531 157.441406 -111.066406 141.296875 -105.890625 L 229.484375 0 L 155.265625 0 L 77.015625 -101.234375 L 77.015625 0 L 18.625 0 Z M 77.015625 -142.53125 L 83.84375 -142.53125 C 89.226562 -142.53125 93.78125 -142.632812 97.5 -142.84375 C 101.226562 -143.050781 105.472656 -143.773438 110.234375 -145.015625 C 114.992188 -146.253906 118.820312 -148.015625 121.71875 -150.296875 C 124.625 -152.578125 127.109375 -155.890625 129.171875 -160.234375 C 131.242188 -164.578125 132.28125 -169.851562 132.28125 -176.0625 C 132.28125 -182.28125 131.242188 -187.5625 129.171875 -191.90625 C 127.109375 -196.25 124.625 -199.5625 121.71875 -201.84375 C 118.820312 -204.125 114.992188 -205.882812 110.234375 -207.125 C 105.472656 -208.363281 101.226562 -209.085938 97.5 -209.296875 C 93.78125 -209.503906 89.226562 -209.609375 83.84375 -209.609375 L 77.015625 -209.609375 Z M 77.015625 -142.53125 "/></g></g></g><g fill="#ffffff" fill-opacity="1"><g transform="translate(463.629265, 490.397148)"><g><path d="M 77.015625 -256.1875 L 77.015625 0 L 18.625 0 L 18.625 -256.1875 Z M 77.015625 -256.1875 "/></g></g></g><g fill="#ffffff" fill-opacity="1"><g transform="translate(543.747374, 490.397148)"><g><path d="M 7.140625 -128.25 C 7.140625 -165.300781 19.765625 -196.660156 45.015625 -222.328125 C 70.273438 -248.003906 100.710938 -260.84375 136.328125 -260.84375 C 172.140625 -260.84375 202.566406 -248.054688 227.609375 -222.484375 C 252.660156 -196.921875 265.1875 -165.507812 265.1875 -128.25 C 265.1875 -90.78125 252.867188 -59.257812 228.234375 -33.6875 C 203.597656 -8.125 172.960938 4.65625 136.328125 4.65625 C 98.847656 4.65625 67.945312 -8.019531 43.625 -33.375 C 19.300781 -58.738281 7.140625 -90.363281 7.140625 -128.25 Z M 70.1875 -128.25 C 70.1875 -114.789062 72.253906 -102.523438 76.390625 -91.453125 C 80.523438 -80.378906 87.769531 -71.007812 98.125 -63.34375 C 108.476562 -55.6875 121.210938 -51.859375 136.328125 -51.859375 C 158.054688 -51.859375 174.457031 -59.3125 185.53125 -74.21875 C 196.613281 -89.125 202.15625 -107.132812 202.15625 -128.25 C 202.15625 -149.15625 196.515625 -167.113281 185.234375 -182.125 C 173.953125 -197.132812 157.648438 -204.640625 136.328125 -204.640625 C 115.210938 -204.640625 98.910156 -197.132812 87.421875 -182.125 C 75.929688 -167.113281 70.1875 -149.15625 70.1875 -128.25 Z M 70.1875 -128.25 "/></g></g></g><g fill="#ffffff" fill-opacity="1"><g transform="translate(800.560086, 490.397148)"><g><path d="M 77.015625 -158.984375 L 77.015625 0 L 18.625 0 L 18.625 -256.1875 L 77.015625 -256.1875 L 178.859375 -97.203125 L 179.484375 -97.203125 L 179.484375 -256.1875 L 237.859375 -256.1875 L 237.859375 0 L 179.484375 0 L 77.625 -158.984375 Z M 77.015625 -158.984375 "/></g></g></g><g fill="#ffffff" fill-opacity="1"><g transform="translate(1041.535479, 490.397148)"><g><path d="M 54.03125 -66.453125 C 63.96875 -66.453125 72.40625 -62.984375 79.34375 -56.046875 C 86.28125 -49.109375 89.75 -40.675781 89.75 -30.75 C 89.75 -21.007812 86.28125 -12.671875 79.34375 -5.734375 C 72.40625 1.191406 63.96875 4.65625 54.03125 4.65625 C 44.300781 4.65625 35.96875 1.191406 29.03125 -5.734375 C 22.09375 -12.671875 18.625 -21.007812 18.625 -30.75 C 18.625 -40.675781 22.09375 -49.109375 29.03125 -56.046875 C 35.96875 -62.984375 44.300781 -66.453125 54.03125 -66.453125 Z M 54.03125 -66.453125 "/></g></g></g><g fill="#ffffff" fill-opacity="1"><g transform="translate(1134.38557, 490.397148)"><g><path d="M 148.75 -256.1875 L 252.15625 0 L 189.421875 0 L 170.484375 -51.234375 L 72.96875 -51.234375 L 54.03125 0 L -8.6875 0 L 94.71875 -256.1875 Z M 150.609375 -102.46875 L 122.03125 -177 L 121.421875 -177 L 92.84375 -102.46875 Z M 150.609375 -102.46875 "/></g></g></g><g fill="#ffffff" fill-opacity="1"><g transform="translate(1362.318478, 490.397148)"><g><path d="M 77.015625 -256.1875 L 77.015625 0 L 18.625 0 L 18.625 -256.1875 Z M 77.015625 -256.1875 "/></g></g></g></svg>